<svg width="192" height="192" xmlns="http://www.w3.org/2000/svg" xmlns:xlink="http://www.w3.org/1999/xlink" overflow="hidden"><defs><clipPath id="clip0"><rect x="0" y="0" width="192" height="192"/></clipPath></defs><g clip-path="url(#clip0)"><rect x="0" y="0" width="192" height="192" fill="#FFFFFF"/><path d="M1-4.13849e-06 1.00008 18.7017-0.999923 18.7017-1 4.13849e-06ZM4.00007 17.3684 0.000104987 25.3684-3.99993 17.3684Z" fill="#0E2841" transform="matrix(1 0 0 -1 113 29.3684)"/><text font-family="Cambria Math,Cambria Math_MSFontService,sans-serif" font-weight="400" font-size="16" transform="translate(126.645 20)">ℎ</text><text font-family="Cambria Math,Cambria Math_MSFontService,sans-serif" font-weight="400" font-size="11.68" transform="translate(135.751 14)">(</text><text font-family="Cambria Math,Cambria Math_MSFontService,sans-serif" font-weight="400" font-size="11.68" transform="translate(140.585 14)">𝑡</text><text font-family="Cambria Math,Cambria Math_MSFontService,sans-serif" font-weight="400" font-size="11.68" transform="translate(146.065 14)">+</text><text font-family="Cambria Math,Cambria Math_MSFontService,sans-serif" font-weight="400" font-size="11.68" transform="translate(154.565 14)">1</text><text font-family="Cambria Math,Cambria Math_MSFontService,sans-serif" font-weight="400" font-size="11.68" transform="translate(161.398 14)">)</text><path d="M1-6.31528e-06 1.00006 9.95758-0.999937 9.95759-1 6.31528e-06ZM4.00005 8.62423 0.000104987 16.6243-3.99995 8.62428Z" fill="#0E2841" transform="matrix(1 0 0 -1 113 162.624)"/><path d="M1-4.86353e-06 1.00007 14.9199-0.999927 14.9199-1 4.86353e-06ZM4.00007 13.5865 0.000104987 21.5866-3.99993 13.5866Z" fill="#0E2841" transform="matrix(1 0 0 -1 113 110.587)"/><text font-family="Cambria Math,Cambria Math_MSFontService,sans-serif" font-weight="400" font-size="16" transform="translate(100.315 184)">ℎ</text><text font-family="Cambria Math,Cambria Math_MSFontService,sans-serif" font-weight="400" font-size="11.68" transform="translate(109.422 178)">(</text><text font-family="Cambria Math,Cambria Math_MSFontService,sans-serif" font-weight="400" font-size="11.68" transform="translate(114.255 178)">𝑡</text><text font-family="Cambria Math,Cambria Math_MSFontService,sans-serif" font-weight="400" font-size="11.68" transform="translate(119.735 178)">)</text><path d="M79 113.5C79 109.91 81.9102 107 85.5001 107L139.5 107C143.09 107 146 109.91 146 113.5L146 139.5C146 143.09 143.09 146 139.5 146L85.5001 146C81.9102 146 79 143.09 79 139.5Z" stroke="#042433" stroke-width="2" stroke-miterlimit="8" fill="#156082" fill-rule="evenodd"/><path d="M79 89 93.0628 65 131.937 65 146 89Z" stroke="#052909" stroke-width="2" stroke-miterlimit="8" fill="#196B24" fill-rule="evenodd"/><path d="M146 29 131.937 53 93.0628 53 79 29Z" stroke="#052909" stroke-width="2" stroke-miterlimit="8" fill="#196B24" fill-rule="evenodd"/><path d="M94.3502 54.7089 100.5 54.7089 100.5 58.9031 94.3502 58.9031Z" fill="#12541A" fill-rule="evenodd"/><path d="M100.5 54.7089 106.65 54.7089 106.65 58.9031 100.5 58.9031Z" fill="#196B24" fill-rule="evenodd"/><path d="M106.65 54.7089 112.8 54.7089 112.8 58.9031 106.65 58.9031Z" fill="#12541A" fill-rule="evenodd"/><path d="M112.8 54.7089 118.95 54.7089 118.95 58.9031 112.8 58.9031Z" fill="#196B24" fill-rule="evenodd"/><path d="M118.95 54.7089 125.1 54.7089 125.1 58.9031 118.95 58.9031Z" fill="#12541A" fill-rule="evenodd"/><path d="M125.1 54.7089 131.25 54.7089 131.25 58.9031 125.1 58.9031Z" fill="#196B24" fill-rule="evenodd"/><path d="M94.3502 58.9031 100.5 58.9031 100.5 63.0973 94.3502 63.0973Z" fill="#12541A" fill-rule="evenodd"/><path d="M100.5 58.9031 106.65 58.9031 106.65 63.0973 100.5 63.0973Z" fill="#196B24" fill-rule="evenodd"/><path d="M106.65 58.9031 112.8 58.9031 112.8 63.0973 106.65 63.0973Z" fill="#12541A" fill-rule="evenodd"/><path d="M112.8 58.9031 118.95 58.9031 118.95 63.0973 112.8 63.0973Z" fill="#196B24" fill-rule="evenodd"/><path d="M118.95 58.9031 125.1 58.9031 125.1 63.0973 118.95 63.0973Z" fill="#12541A" fill-rule="evenodd"/><path d="M125.1 58.9031 131.25 58.9031 131.25 63.0973 125.1 63.0973Z" fill="#196B24" fill-rule="evenodd"/><path d="M100.5 54.7089 100.5 63.0973" stroke="#FFFFFF" stroke-width="0.333333" stroke-linejoin="round" stroke-miterlimit="10" fill="none" fill-rule="evenodd"/><path d="M106.65 54.7089 106.65 63.0973" stroke="#FFFFFF" stroke-width="0.333333" stroke-linejoin="round" stroke-miterlimit="10" fill="none" fill-rule="evenodd"/><path d="M112.8 54.7089 112.8 63.0973" stroke="#FFFFFF" stroke-width="0.333333" stroke-linejoin="round" stroke-miterlimit="10" fill="none" fill-rule="evenodd"/><path d="M118.95 54.7089 118.95 63.0973" stroke="#FFFFFF" stroke-width="0.333333" stroke-linejoin="round" stroke-miterlimit="10" fill="none" fill-rule="evenodd"/><path d="M125.1 54.7089 125.1 63.0973" stroke="#FFFFFF" stroke-width="0.333333" stroke-linejoin="round" stroke-miterlimit="10" fill="none" fill-rule="evenodd"/><path d="M94.3502 58.9031 131.25 58.9031" stroke="#FFFFFF" stroke-width="0.333333" stroke-linejoin="round" stroke-miterlimit="10" fill="none" fill-rule="evenodd"/><text font-family="Cambria Math,Cambria Math_MSFontService,sans-serif" font-weight="400" font-size="16" transform="translate(146.845 105)">ℎ</text><path d="M5.70312-10.6094 6.25781-10.2891C6.01302-9.91927 5.77995-9.63281 5.55859-9.42969 5.33724-9.22656 5.125-9.08724 4.92188-9.01172 4.71875-8.9362 4.48698-8.89844 4.22656-8.89844 4.05469-8.89844 3.90365-8.90885 3.77344-8.92969 3.64323-8.95052 3.51562-8.98047 3.39062-9.01953 3.26562-9.05859 3.07031-9.13281 2.80469-9.24219 2.63281-9.3099 2.49609-9.36328 2.39453-9.40234 2.29297-9.44141 2.1875-9.47266 2.07812-9.49609 1.96875-9.51953 1.85417-9.53125 1.73438-9.53125 1.5625-9.53125 1.42057-9.51172 1.30859-9.47266 1.19661-9.43359 1.08333-9.36719 0.96875-9.27344 0.854167-9.17969 0.705729-9.02604 0.523438-8.8125L0-9.13281C0.307292-9.57031 0.558594-9.8737 0.753906-10.043 0.949219-10.2122 1.14844-10.3346 1.35156-10.4102 1.55469-10.4857 1.79688-10.5234 2.07812-10.5234 2.23438-10.5234 2.375-10.513 2.5-10.4922 2.625-10.4714 2.74089-10.444 2.84766-10.4102 2.95443-10.3763 3.13802-10.3073 3.39844-10.2031 3.58073-10.1302 3.72786-10.0716 3.83984-10.0273 3.95182-9.98307 4.0651-9.94922 4.17969-9.92578 4.29427-9.90234 4.42708-9.89062 4.57812-9.89062 4.78125-9.89062 4.96354-9.9375 5.125-10.0312 5.28646-10.125 5.47917-10.3177 5.70312-10.6094Z" transform="translate(148.565 102)"/><text fill="#000000" fill-opacity="0" font-family="Arial,Arial_MSFontService,sans-serif" font-size="1.79688" y="-9.03711">෨</text><text font-family="Cambria Math,Cambria Math_MSFontService,sans-serif" font-weight="400" font-size="11.68" transform="translate(155.951 100)">(</text><text font-family="Cambria Math,Cambria Math_MSFontService,sans-serif" font-weight="400" font-size="11.68" transform="translate(160.785 100)">𝑡</text><text font-family="Cambria Math,Cambria Math_MSFontService,sans-serif" font-weight="400" font-size="11.68" transform="translate(166.265 100)">+</text><text font-family="Cambria Math,Cambria Math_MSFontService,sans-serif" font-weight="400" font-size="11.68" transform="translate(174.765 100)">1</text><text font-family="Cambria Math,Cambria Math_MSFontService,sans-serif" font-weight="400" font-size="11.68" transform="translate(181.598 100)">)</text><text font-family="Cambria Math,Cambria Math_MSFontService,sans-serif" font-weight="400" font-size="16" transform="translate(142.803 64)">𝑧</text><text font-family="Cambria Math,Cambria Math_MSFontService,sans-serif" font-weight="400" font-size="11.68" transform="translate(151.25 58)">(</text><text font-family="Cambria Math,Cambria Math_MSFontService,sans-serif" font-weight="400" font-size="11.68" transform="translate(156.083 58)">𝑡</text><text font-family="Cambria Math,Cambria Math_MSFontService,sans-serif" font-weight="400" font-size="11.68" transform="translate(161.563 58)">+</text><text font-family="Cambria Math,Cambria Math_MSFontService,sans-serif" font-weight="400" font-size="11.68" transform="translate(170.063 58)">1</text><text font-family="Cambria Math,Cambria Math_MSFontService,sans-serif" font-weight="400" font-size="11.68" transform="translate(176.896 58)">)</text><text fill="#0D3512" font-family="Cambria Math,Cambria Math_MSFontService,sans-serif" font-weight="400" font-size="16" transform="translate(3.2 82)">Discretize</text><text fill="#0D3512" font-family="Cambria Math,Cambria Math_MSFontService,sans-serif" font-weight="400" font-size="16" transform="translate(1.4673 47)">Re</text><text fill="#0D3512" font-family="Cambria Math,Cambria Math_MSFontService,sans-serif" font-weight="400" font-size="16" transform="translate(19.014 47)">-</text><text fill="#0D3512" font-family="Cambria Math,Cambria Math_MSFontService,sans-serif" font-weight="400" font-size="16" transform="translate(24.3473 47)">Embed</text></g></svg>