<svg width="192" height="192" xmlns="http://www.w3.org/2000/svg" xmlns:xlink="http://www.w3.org/1999/xlink" overflow="hidden"><g><rect x="0" y="0" width="192" height="192" fill="#FFFFFF"/><path d="M1-5.52562e-06 1.00007 12.3333-0.999932 12.3333-1 5.52562e-06ZM4.00006 11 0.000104987 19-3.99994 11Z" fill="#0D3512" transform="matrix(1 0 0 -1 59 171)"/><path d="M1-5.49671e-06 1.00007 12.4333-0.999932 12.4333-1 5.49671e-06ZM4.00006 11.0999 0.000104987 19.0999-3.99994 11.1Z" fill="#0D3512" transform="matrix(1 0 0 -1 59 133.1)"/><path d="M1-5.48236e-06 1.00007 12.4832-0.999931 12.4833-1 5.48236e-06ZM4.00006 11.1499 0.000104987 19.1499-3.99994 11.1499Z" fill="#0D3512" transform="matrix(1 0 0 -1 59 95.1499)"/><path d="M1-5.47522e-06 1.00007 12.5082-0.999931 12.5082-1 5.47522e-06ZM4.00006 11.1749 0.000104987 19.1749-3.99994 11.1749Z" fill="#0D3512" transform="matrix(1 0 0 -1 59 56.1749)"/><path d="M1-5.52562e-06 1.00007 12.3333-0.999932 12.3333-1 5.52562e-06ZM4.00006 11 0.000104987 19-3.99994 11Z" fill="#0B3041" transform="matrix(1 0 0 -1 133 171)"/><path d="M1-5.49671e-06 1.00007 12.4333-0.999932 12.4333-1 5.49671e-06ZM4.00006 11.0999 0.000104987 19.0999-3.99994 11.1Z" fill="#0B3041" transform="matrix(1 0 0 -1 133 133.1)"/><path d="M1-5.48236e-06 1.00007 12.4832-0.999931 12.4833-1 5.48236e-06ZM4.00006 11.1499 0.000104987 19.1499-3.99994 11.1499Z" fill="#0B3041" transform="matrix(1 0 0 -1 133 95.1499)"/><path d="M1-5.47522e-06 1.00007 12.5082-0.999931 12.5082-1 5.47522e-06ZM4.00006 11.1749 0.000104987 19.1749-3.99994 11.1749Z" fill="#0B3041" transform="matrix(1 0 0 -1 133 56.1749)"/><path d="M68 180 116.533 180 116.533 182 68 182ZM115.2 177 123.2 181 115.2 185Z" fill="#C04F15"/><path d="M68 142 116.533 142 116.533 144 68 144ZM115.2 139 123.2 143 115.2 147Z" fill="#C04F15"/><path d="M68 103 116.533 103 116.533 105 68 105ZM115.2 100 123.2 104 115.2 108Z" fill="#C04F15"/><path d="M68 65 116.533 65.0001 116.533 67.0001 68 67ZM115.2 62.0001 123.2 66.0001 115.2 70.0001Z" fill="#C04F15"/><path d="M68 27 116.533 27.0001 116.533 29.0001 68 29ZM115.2 24.0001 123.2 28.0001 115.2 32.0001Z" fill="#C04F15"/><path d="M49 180.5C49 175.253 53.2533 171 58.5 171 63.7467 171 68 175.253 68 180.5 68 185.747 63.7467 190 58.5 190 53.2533 190 49 185.747 49 180.5Z" stroke="#052909" stroke-width="2" stroke-miterlimit="8" fill="#196B24" fill-rule="evenodd"/><path d="M49 142.5C49 137.253 53.2533 133 58.5 133 63.7467 133 68 137.253 68 142.5 68 147.747 63.7467 152 58.5 152 53.2533 152 49 147.747 49 142.5Z" stroke="#052909" stroke-width="2" stroke-miterlimit="8" fill="#196B24" fill-rule="evenodd"/><path d="M49 104.5C49 99.2533 53.2533 95 58.5 95 63.7467 95 68 99.2533 68 104.5 68 109.747 63.7467 114 58.5 114 53.2533 114 49 109.747 49 104.5Z" stroke="#052909" stroke-width="2" stroke-miterlimit="8" fill="#196B24" fill-rule="evenodd"/><path d="M49 66C49 60.4772 53.2533 56 58.5 56 63.7467 56 68 60.4772 68 66 68 71.5228 63.7467 76 58.5 76 53.2533 76 49 71.5228 49 66Z" stroke="#052909" stroke-width="2" stroke-miterlimit="8" fill="#196B24" fill-rule="evenodd"/><path d="M49 27.5C49 22.2533 53.2533 18 58.5 18 63.7467 18 68 22.2533 68 27.5 68 32.7467 63.7467 37 58.5 37 53.2533 37 49 32.7467 49 27.5Z" stroke="#052909" stroke-width="2" stroke-miterlimit="8" fill="#196B24" fill-rule="evenodd"/><path d="M124 174.167C124 172.418 125.418 171 127.167 171L139.833 171C141.582 171 143 172.418 143 174.167L143 186.833C143 188.582 141.582 190 139.833 190L127.167 190C125.418 190 124 188.582 124 186.833Z" stroke="#042433" stroke-width="2" stroke-miterlimit="8" fill="#156082" fill-rule="evenodd"/><path d="M124 136.167C124 134.418 125.418 133 127.167 133L139.833 133C141.582 133 143 134.418 143 136.167L143 148.833C143 150.582 141.582 152 139.833 152L127.167 152C125.418 152 124 150.582 124 148.833Z" stroke="#042433" stroke-width="2" stroke-miterlimit="8" fill="#156082" fill-rule="evenodd"/><path d="M124 98.1667C124 96.4178 125.418 95 127.167 95L139.833 95C141.582 95 143 96.4178 143 98.1667L143 110.833C143 112.582 141.582 114 139.833 114L127.167 114C125.418 114 124 112.582 124 110.833Z" stroke="#042433" stroke-width="2" stroke-miterlimit="8" fill="#156082" fill-rule="evenodd"/><path d="M124 59.1667C124 57.4178 125.418 56 127.167 56L139.833 56C141.582 56 143 57.4178 143 59.1667L143 72.8333C143 74.5822 141.582 76 139.833 76L127.167 76C125.418 76 124 74.5822 124 72.8333Z" stroke="#042433" stroke-width="2" stroke-miterlimit="8" fill="#156082" fill-rule="evenodd"/><path d="M124 21.1667C124 19.4178 125.418 18 127.167 18L139.833 18C141.582 18 143 19.4178 143 21.1667L143 33.8333C143 35.5822 141.582 37 139.833 37L127.167 37C125.418 37 124 35.5822 124 33.8333Z" stroke="#042433" stroke-width="2" stroke-miterlimit="8" fill="#156082" fill-rule="evenodd"/><text fill="#0D3512" font-family="Cambria Math,Cambria Math_MSFontService,sans-serif" font-weight="400" font-size="18.6667" transform="matrix(-1.83697e-16 -1 1 -1.83697e-16 28.2437 190)">Reference Algorithm</text><text fill="#0B3041" font-family="Cambria Math,Cambria Math_MSFontService,sans-serif" font-weight="400" font-size="18.6667" transform="matrix(6.12323e-17 1 -1 6.12323e-17 163.756 79)">Model</text><text fill="#C04F15" font-family="Cambria Math,Cambria Math_MSFontService,sans-serif" font-style="oblique" font-weight="400" font-size="16" transform="translate(53.1692 14)">Supervision</text></g></svg>